<?xml version="1.0" encoding="utf-8"?>
<!-- Svg Vector Icons : http://www.onlinewebfonts.com/icon -->
<!DOCTYPE svg PUBLIC "-//W3C//DTD SVG 1.1//EN" "http://www.w3.org/Graphics/SVG/1.1/DTD/svg11.dtd">
<svg version="1.1" xmlns="http://www.w3.org/2000/svg" xmlns:xlink="http://www.w3.org/1999/xlink" x="0px" y="0px" viewBox="0 0 1000 1000" enable-background="new 0 0 1000 1000" xml:space="preserve">
<metadata> Svg Vector Icons : http://www.onlinewebfonts.com/icon </metadata>
<g><path d="M590.9,75.2c66.2,0,126.3,26.9,169.5,70.2c43.5,43.5,70.2,103.3,70.2,169.5c0,66.2-26.7,126.3-70.2,169.5c-43.3,43.5-103.3,70.2-169.5,70.2S464.8,528,421.3,484.5C378,441.2,351.1,381.2,351.1,315c0-66.2,26.9-126.1,70.2-169.5C464.8,102.1,524.6,75.2,590.9,75.2L590.9,75.2z M721.8,184c-33.5-33.5-79.9-54.2-131-54.2c-51.1,0-97.5,20.7-131,54.2c-33.5,33.5-54.2,79.9-54.2,131c0,51.1,20.7,97.5,54.2,131c33.5,33.5,79.9,54.2,131,54.2c51.1,0,97.5-20.7,131-54.2c33.5-33.5,54.2-79.9,54.2-131C776.1,263.9,755.3,217.5,721.8,184L721.8,184z"/><path d="M340.2,490.5c15.1,0,27.3,12.2,27.3,27.3c0,14.9-12.2,27.3-27.3,27.3c-59.7,0-113.7-24.2-152.8-63.3c-39.1-39.1-63.3-93.1-63.3-152.8c0-59.7,24.2-113.7,63.3-152.8c39.1-39.1,93.1-63.3,152.8-63.3c15.1,0,27.3,12.2,27.3,27.3c0,14.9-12.2,27.3-27.3,27.3c-44.6,0-85,18-114.1,47.3c-29.3,29.1-47.5,69.5-47.5,114.2c0,44.6,18.2,85,47.5,114.2C255.2,472.3,295.6,490.5,340.2,490.5L340.2,490.5z"/><path d="M64.6,819.1c0,15.1-12.2,27.3-27.3,27.3c-15.1,0-27.3-12.2-27.3-27.3c0-90.1,36.6-171.7,95.7-230.9c59.1-59.1,140.6-95.7,230.9-95.7c15.1,0,27.3,12.4,27.3,27.3c0,15.1-12.2,27.3-27.3,27.3c-75.1,0-143.2,30.6-192.3,79.7C95,676.1,64.6,744,64.6,819.1L64.6,819.1z"/><path d="M251.6,897.5c0,15.1-12.2,27.3-27.3,27.3c-15.1,0-27.3-12.2-27.3-27.3c0-109.5,44.4-208.7,116.1-280.3c71.9-71.9,171-116.2,280.5-116.2c14.9,0,27.3,12.2,27.3,27.3c0,15.1-12.4,27.3-27.3,27.3c-94.6,0-179.9,38.4-242,100.2C289.8,717.6,251.6,803.1,251.6,897.5L251.6,897.5z M839.4,659.7c-10.4-10.9-10.2-28.2,0.7-38.6c10.9-10.4,28-10,38.4,0.7c35.1,36.4,63.5,79.5,82.8,127.2c18.6,45.8,28.7,96.1,28.7,148.4c0,15.1-12.2,27.3-27.3,27.3c-15.1,0-27.3-12.2-27.3-27.3c0-45.5-8.7-88.8-24.7-128.2C894.1,728.1,869.7,691,839.4,659.7L839.4,659.7z"/></g>
</svg>