<svg width="24" height="24" viewBox="0 0 24 24" fill="none" xmlns="http://www.w3.org/2000/svg">
<path d="M3.16098 4.46916C4.32105 3.30889 5.87698 2.63025 7.51658 2.56942C9.15618 2.50858 10.7581 3.07005 12.001 4.14116C13.2427 3.07183 14.8426 2.511 16.4802 2.57093C18.1178 2.63086 19.6724 3.30714 20.8327 4.46437C21.9929 5.62161 22.6733 7.17439 22.7375 8.81185C22.8017 10.4493 22.2451 12.0506 21.179 13.2952L13.414 21.0852C13.0572 21.442 12.5788 21.6509 12.0745 21.6698C11.5702 21.6887 11.0775 21.5163 10.695 21.1872L10.585 21.0862L2.82098 13.2952C1.75547 12.0517 1.19856 10.4519 1.2616 8.81554C1.32463 7.17922 2.00297 5.62698 3.16098 4.46916ZM4.57498 5.88316C3.75722 6.70115 3.28583 7.80261 3.25865 8.95893C3.23146 10.1153 3.65057 11.2377 4.42898 12.0932L4.57498 12.2472L12 19.6722L17.303 14.3682L13.768 10.8332L12.708 11.8932C12.4294 12.1718 12.0988 12.3929 11.7348 12.5438C11.3708 12.6946 10.9807 12.7723 10.5867 12.7724C9.79097 12.7726 9.02777 12.4567 8.46498 11.8942C7.90219 11.3316 7.58591 10.5686 7.58573 9.77287C7.58554 8.97715 7.90146 8.21395 8.46398 7.65116L10.566 5.54816C9.72945 4.88054 8.68239 4.53285 7.61267 4.56749C6.54294 4.60213 5.52057 5.01682 4.72898 5.73716L4.57498 5.88316ZM13.061 8.71116C13.2485 8.52369 13.5028 8.41838 13.768 8.41838C14.0331 8.41838 14.2875 8.52369 14.475 8.71116L18.717 12.9532L19.425 12.2472C20.2564 11.4163 20.7298 10.2931 20.7438 9.11773C20.7578 7.94237 20.3114 6.80818 19.5 5.95772C18.6886 5.10726 17.5766 4.60803 16.4019 4.56682C15.2272 4.5256 14.083 4.94566 13.214 5.73716L13.061 5.88316L9.87898 9.06516C9.70565 9.23838 9.60196 9.46921 9.58758 9.71383C9.5732 9.95845 9.64914 10.1998 9.80098 10.3922L9.87898 10.4792C10.0522 10.6525 10.283 10.7562 10.5276 10.7706C10.7723 10.7849 11.0137 10.709 11.206 10.5572L11.293 10.4792L13.061 8.71116Z" fill="#0282D5"/>
</svg>
