<svg width="32" height="32" viewBox="0 0 32 32" fill="none" xmlns="http://www.w3.org/2000/svg">
<path fill-rule="evenodd" clip-rule="evenodd" d="M0 16.0093C0 7.15897 7.16386 0 16 0C24.8361 0 32 7.15897 32 16.0093C32 24.8417 24.8361 32 16 32C7.16386 32 0 24.8417 0 16.0093ZM1.42208 16.0092C1.42208 24.0426 7.9609 30.5778 16 30.5778C24.0394 30.5778 30.5776 24.0426 30.5776 16.0092C30.5776 7.95742 24.0394 1.42222 16 1.42222C7.9609 1.42222 1.42208 7.95742 1.42208 16.0092ZM7.27943 13.1166C7.27943 13.1166 7.06896 13.0641 7.03635 12.9043C7.00373 12.7445 7.17091 12.5847 7.17091 12.5847L19.7284 9.72968C19.7284 9.72968 19.9617 9.78757 19.9959 9.92948C20.0302 10.0714 19.8453 10.2142 19.8453 10.2142L7.27943 13.1166ZM7.99221 15.9575C7.99221 15.9575 7.7817 15.9051 7.74909 15.7453C7.71651 15.5855 7.88365 15.4256 7.88365 15.4256L20.4412 12.5706C20.4412 12.5706 20.6745 12.6285 20.7087 12.7704C20.7429 12.9123 20.5581 13.0551 20.5581 13.0551L7.99221 15.9575ZM8.63294 19.0865C8.63294 19.0865 8.42248 19.0341 8.38987 18.8743C8.35725 18.7145 8.52443 18.5546 8.52443 18.5546L15.3778 16.9306C15.3778 16.9306 15.6111 16.9885 15.6453 17.1304C15.6795 17.2723 15.4947 17.4151 15.4947 17.4151L8.63294 19.0865ZM5.73625 8.98933C4.96341 9.16661 4.48078 9.93731 4.6583 10.7101C4.67147 10.7674 4.68234 10.8146 4.69001 10.8481C4.8078 11.3607 4.92554 11.8733 5.04328 12.3858C5.28706 13.447 5.56115 14.64 5.74991 15.4616C6.04283 16.7368 6.70888 19.6101 7.17071 21.6007C7.43922 22.758 8.5945 23.4783 9.75212 23.2109L22.138 20.35C23.3007 20.0814 24.0234 18.9194 23.7497 17.7579C23.283 15.777 22.6137 12.9308 22.3216 11.6601C22.1328 10.8385 21.8585 9.64546 21.6147 8.58433C21.4816 8.00529 21.3575 7.46539 21.2612 7.04661C21.2513 7.00353 21.2406 6.95684 21.2292 6.9074C21.0517 6.13506 20.2818 5.65247 19.5093 5.82966L5.73625 8.98933ZM24.9777 20.1662L19.2608 25.3554L19.2636 25.3588C19.2395 25.3776 19.2149 25.3973 19.1917 25.4189C18.6489 25.911 18.5682 26.7049 19.0108 27.1917C19.452 27.6773 20.2507 27.6726 20.7935 27.1801C20.832 27.1442 20.8686 27.1064 20.9036 27.0686L26.5726 21.9213L24.9777 20.1662ZM27.9833 19.0722L27.377 20.3964L26.797 21.7522L25.9986 20.8739L25.1945 19.9887L26.6068 19.5497L27.9833 19.0722Z" fill="#3E6CB2"/>
</svg>
