<svg width="78" height="78" viewBox="0 0 78 78" fill="none" xmlns="http://www.w3.org/2000/svg">
<path fill-rule="evenodd" clip-rule="evenodd" d="M0 39.0226C0 17.45 17.4619 0 39 0C60.5381 0 78 17.45 78 39.0226C78 60.5516 60.5381 78 39 78C17.4619 78 0 60.5516 0 39.0226ZM3.46631 39.0224C3.46631 58.6038 19.4047 74.5333 39 74.5333C58.5961 74.5333 74.533 58.6038 74.533 39.0224C74.533 19.3962 58.5961 3.46667 39 3.46667C19.4047 3.46667 3.46631 19.3962 3.46631 39.0224ZM17.7436 31.9717C17.7436 31.9717 17.2306 31.8438 17.1511 31.4543C17.0716 31.0648 17.4791 30.6751 17.4791 30.6751L48.088 23.7161C48.088 23.7161 48.6566 23.8572 48.7401 24.2031C48.8235 24.549 48.373 24.8971 48.373 24.8971L17.7436 31.9717ZM19.481 38.8965C19.481 38.8965 18.9679 38.7686 18.8884 38.3791C18.809 37.9897 19.2164 37.5999 19.2164 37.5999L49.8254 30.6409C49.8254 30.6409 50.394 30.782 50.4774 31.1279C50.5608 31.4738 50.1103 31.8219 50.1103 31.8219L19.481 38.8965ZM21.0428 46.5233C21.0428 46.5233 20.5298 46.3955 20.4503 46.006C20.3708 45.6165 20.7783 45.2268 20.7783 45.2268L37.4834 41.2684C37.4834 41.2684 38.052 41.4095 38.1354 41.7554C38.2189 42.1013 37.7683 42.4494 37.7683 42.4494L21.0428 46.5233ZM13.9821 21.9115C12.0983 22.3436 10.9219 24.2222 11.3546 26.1058C11.3867 26.2455 11.4132 26.3607 11.4319 26.4423C11.719 27.6917 12.006 28.9411 12.293 30.1905C12.8872 32.777 13.5553 35.6851 14.0154 37.6877C14.7294 40.7959 16.3529 47.7996 17.4786 52.6516C18.1331 55.4727 20.9491 57.2284 23.7708 56.5766L53.9614 49.6031C56.7954 48.9485 58.5571 46.116 57.89 43.2849C56.7522 38.4565 55.1209 31.5189 54.409 28.4215C53.9487 26.4189 53.2802 23.5108 52.6858 20.9243C52.3613 19.5129 52.0589 18.1969 51.8242 17.1761C51.8001 17.0711 51.7739 16.9573 51.7462 16.8368C51.3135 14.9542 49.4368 13.7779 47.554 14.2098L13.9821 21.9115ZM60.8831 49.1551L46.9483 61.8037L46.9551 61.8121C46.8964 61.8579 46.8362 61.9059 46.7797 61.9585C45.4566 63.1581 45.2599 65.0932 46.3389 66.2798C47.4142 67.4635 49.3611 67.452 50.6842 66.2516C50.778 66.164 50.8672 66.0718 50.9526 65.9796L64.7708 53.4331L60.8831 49.1551ZM68.2094 46.4886L66.7315 49.7163L65.3177 53.021L63.3715 50.8801L61.4117 48.7225L64.854 47.6524L68.2094 46.4886Z" fill="#286BB8"/>
</svg>
